<svg width="480" height="213" viewBox="0 0 480 213" fill="none" xmlns="http://www.w3.org/2000/svg">
<path d="M0.40332 94.6C86.7209 -23.2655 169.206 -25.1313 250.771 94.6" stroke="white"/>
<path d="M250.771 94.6C329.595 195.004 404.919 196.593 479.403 94.6" stroke="white"/>
<line x1="365.903" y1="160.506" x2="365.903" y2="1.49377" stroke="white"/>
<line x1="355.403" y1="160" x2="376.403" y2="160" stroke="white"/>
<line x1="355.403" y1="1" x2="376.403" y2="1" stroke="white"/>
<line x1="350.432" y1="0.5" x2="132.375" y2="0.5" stroke="white" stroke-dasharray="11 22"/>
<path d="M121.523 27H119.937C119.844 26.544 119.68 26.1435 119.445 25.7983C119.215 25.4531 118.934 25.1634 118.601 24.929C118.273 24.6903 117.909 24.5114 117.508 24.392C117.108 24.2727 116.69 24.2131 116.256 24.2131C115.463 24.2131 114.745 24.4134 114.101 24.8139C113.462 25.2145 112.953 25.8047 112.574 26.5845C112.199 27.3643 112.011 28.321 112.011 29.4545C112.011 30.5881 112.199 31.5447 112.574 32.3246C112.953 33.1044 113.462 33.6946 114.101 34.0952C114.745 34.4957 115.463 34.696 116.256 34.696C116.69 34.696 117.108 34.6364 117.508 34.517C117.909 34.3977 118.273 34.2209 118.601 33.9865C118.934 33.7479 119.215 33.456 119.445 33.1108C119.68 32.7614 119.844 32.3608 119.937 31.9091H121.523C121.403 32.5781 121.186 33.1768 120.871 33.7053C120.555 34.2337 120.163 34.6832 119.695 35.054C119.226 35.4205 118.699 35.6996 118.116 35.8913C117.536 36.0831 116.916 36.179 116.256 36.179C115.139 36.179 114.146 35.9062 113.277 35.3608C112.408 34.8153 111.724 34.0398 111.225 33.0341C110.726 32.0284 110.477 30.8352 110.477 29.4545C110.477 28.0739 110.726 26.8807 111.225 25.875C111.724 24.8693 112.408 24.0938 113.277 23.5483C114.146 23.0028 115.139 22.7301 116.256 22.7301C116.916 22.7301 117.536 22.826 118.116 23.0178C118.699 23.2095 119.226 23.4908 119.695 23.8615C120.163 24.228 120.555 24.6754 120.871 25.2038C121.186 25.728 121.403 26.3267 121.523 27ZM123.88 36V26.1818H125.337V27.6648H125.439C125.618 27.179 125.942 26.7848 126.411 26.4822C126.88 26.1797 127.408 26.0284 127.996 26.0284C128.107 26.0284 128.245 26.0305 128.412 26.0348C128.578 26.0391 128.704 26.0455 128.789 26.054V27.5881C128.738 27.5753 128.62 27.5561 128.437 27.5305C128.258 27.5007 128.069 27.4858 127.868 27.4858C127.391 27.4858 126.965 27.5859 126.59 27.7862C126.219 27.9822 125.925 28.255 125.708 28.6044C125.495 28.9496 125.388 29.3437 125.388 29.7869V36H123.88ZM134.395 36.2045C133.449 36.2045 132.633 35.9957 131.946 35.5781C131.265 35.1562 130.738 34.5682 130.368 33.8139C130.001 33.0554 129.818 32.1733 129.818 31.1676C129.818 30.1619 130.001 29.2756 130.368 28.5085C130.738 27.7372 131.254 27.1364 131.915 26.706C132.579 26.2713 133.355 26.054 134.241 26.054C134.753 26.054 135.258 26.1392 135.756 26.3097C136.255 26.4801 136.709 26.7571 137.118 27.1406C137.527 27.5199 137.853 28.0227 138.096 28.6491C138.339 29.2756 138.46 30.0469 138.46 30.9631V31.6023H130.892V30.2983H136.926C136.926 29.7443 136.815 29.25 136.593 28.8153C136.376 28.3807 136.065 28.0376 135.66 27.7862C135.26 27.5348 134.787 27.4091 134.241 27.4091C133.64 27.4091 133.12 27.5582 132.682 27.8565C132.247 28.1506 131.912 28.5341 131.678 29.0071C131.444 29.4801 131.326 29.9872 131.326 30.5284V31.3977C131.326 32.1392 131.454 32.7678 131.71 33.2834C131.97 33.7947 132.33 34.1847 132.79 34.4531C133.25 34.7173 133.785 34.8494 134.395 34.8494C134.791 34.8494 135.149 34.794 135.468 34.6832C135.792 34.5682 136.071 34.3977 136.306 34.1719C136.54 33.9418 136.721 33.6562 136.849 33.3153L138.307 33.7244C138.153 34.2188 137.895 34.6534 137.533 35.0284C137.171 35.3991 136.723 35.6889 136.191 35.8977C135.658 36.1023 135.059 36.2045 134.395 36.2045ZM147.709 28.3807L146.354 28.7642C146.269 28.5384 146.143 28.3189 145.977 28.1058C145.815 27.8885 145.593 27.7095 145.312 27.5689C145.031 27.4283 144.671 27.358 144.232 27.358C143.631 27.358 143.13 27.4964 142.73 27.7734C142.334 28.0462 142.135 28.3935 142.135 28.8153C142.135 29.1903 142.272 29.4865 142.544 29.7038C142.817 29.9212 143.243 30.1023 143.823 30.2472L145.28 30.6051C146.158 30.8182 146.812 31.1442 147.243 31.5831C147.673 32.0178 147.888 32.5781 147.888 33.2642C147.888 33.8267 147.726 34.3295 147.402 34.7727C147.083 35.2159 146.635 35.5653 146.06 35.821C145.485 36.0767 144.816 36.2045 144.053 36.2045C143.052 36.2045 142.223 35.9872 141.566 35.5526C140.91 35.1179 140.495 34.483 140.32 33.6477L141.752 33.2898C141.888 33.8182 142.146 34.2145 142.525 34.4787C142.909 34.7429 143.41 34.875 144.027 34.875C144.731 34.875 145.289 34.7259 145.702 34.4276C146.12 34.125 146.329 33.7628 146.329 33.3409C146.329 33 146.209 32.7145 145.971 32.4844C145.732 32.25 145.366 32.0753 144.871 31.9602L143.235 31.5767C142.336 31.3636 141.675 31.0334 141.253 30.5859C140.836 30.1342 140.627 29.5696 140.627 28.892C140.627 28.3381 140.782 27.848 141.093 27.4219C141.409 26.9957 141.837 26.6612 142.378 26.4183C142.924 26.1754 143.542 26.054 144.232 26.054C145.204 26.054 145.966 26.267 146.52 26.6932C147.079 27.1193 147.475 27.6818 147.709 28.3807ZM154.429 26.1818V27.4602H149.341V26.1818H154.429ZM150.824 23.8295H152.332V33.1875C152.332 33.6136 152.394 33.9332 152.518 34.1463C152.646 34.3551 152.807 34.4957 153.003 34.5682C153.204 34.6364 153.415 34.6705 153.636 34.6705C153.802 34.6705 153.939 34.6619 154.045 34.6449C154.152 34.6236 154.237 34.6065 154.301 34.5938L154.608 35.9489C154.506 35.9872 154.363 36.0256 154.18 36.0639C153.996 36.1065 153.764 36.1278 153.483 36.1278C153.057 36.1278 152.639 36.0362 152.23 35.853C151.825 35.6697 151.489 35.3906 151.22 35.0156C150.956 34.6406 150.824 34.1676 150.824 33.5966V23.8295Z" fill="white"/>
<path d="M337.273 183.315V181.909H347.091V183.315H342.974V195H341.389V183.315H337.273ZM348.313 195V185.182H349.771V186.665H349.873C350.052 186.179 350.376 185.785 350.845 185.482C351.313 185.18 351.842 185.028 352.43 185.028C352.541 185.028 352.679 185.031 352.845 185.035C353.011 185.039 353.137 185.045 353.222 185.054V186.588C353.171 186.575 353.054 186.556 352.871 186.531C352.692 186.501 352.502 186.486 352.302 186.486C351.825 186.486 351.399 186.586 351.024 186.786C350.653 186.982 350.359 187.255 350.141 187.604C349.928 187.95 349.822 188.344 349.822 188.787V195H348.313ZM358.7 195.205C357.814 195.205 357.036 194.994 356.367 194.572C355.703 194.15 355.183 193.56 354.808 192.801C354.437 192.043 354.252 191.156 354.252 190.142C354.252 189.119 354.437 188.227 354.808 187.464C355.183 186.701 355.703 186.109 356.367 185.687C357.036 185.265 357.814 185.054 358.7 185.054C359.587 185.054 360.362 185.265 361.027 185.687C361.696 186.109 362.216 186.701 362.587 187.464C362.962 188.227 363.149 189.119 363.149 190.142C363.149 191.156 362.962 192.043 362.587 192.801C362.216 193.56 361.696 194.15 361.027 194.572C360.362 194.994 359.587 195.205 358.7 195.205ZM358.7 193.849C359.374 193.849 359.928 193.677 360.362 193.332C360.797 192.987 361.119 192.533 361.328 191.97C361.536 191.408 361.641 190.798 361.641 190.142C361.641 189.486 361.536 188.874 361.328 188.308C361.119 187.741 360.797 187.283 360.362 186.933C359.928 186.584 359.374 186.409 358.7 186.409C358.027 186.409 357.473 186.584 357.038 186.933C356.604 187.283 356.282 187.741 356.073 188.308C355.864 188.874 355.76 189.486 355.76 190.142C355.76 190.798 355.864 191.408 356.073 191.97C356.282 192.533 356.604 192.987 357.038 193.332C357.473 193.677 358.027 193.849 358.7 193.849ZM371.639 190.986V185.182H373.148V195H371.639V193.338H371.537C371.307 193.837 370.949 194.261 370.463 194.61C369.978 194.955 369.364 195.128 368.622 195.128C368.009 195.128 367.463 194.994 366.986 194.725C366.509 194.452 366.134 194.043 365.861 193.498C365.588 192.948 365.452 192.256 365.452 191.42V185.182H366.96V191.318C366.96 192.034 367.161 192.605 367.561 193.031C367.966 193.457 368.482 193.67 369.108 193.67C369.483 193.67 369.865 193.575 370.252 193.383C370.644 193.191 370.973 192.897 371.237 192.501C371.505 192.104 371.639 191.599 371.639 190.986ZM379.874 198.886C379.145 198.886 378.519 198.793 377.995 198.605C377.471 198.422 377.034 198.179 376.684 197.876C376.339 197.578 376.064 197.259 375.86 196.918L377.062 196.074C377.198 196.253 377.37 196.457 377.579 196.688C377.788 196.922 378.074 197.124 378.436 197.295C378.802 197.469 379.282 197.557 379.874 197.557C380.667 197.557 381.321 197.365 381.836 196.982C382.352 196.598 382.61 195.997 382.61 195.179V193.185H382.482C382.371 193.364 382.214 193.585 382.009 193.849C381.809 194.109 381.519 194.342 381.14 194.546C380.765 194.746 380.258 194.847 379.618 194.847C378.826 194.847 378.114 194.659 377.483 194.284C376.857 193.909 376.361 193.364 375.994 192.648C375.632 191.932 375.451 191.062 375.451 190.04C375.451 189.034 375.628 188.158 375.981 187.413C376.335 186.663 376.827 186.083 377.458 185.674C378.089 185.261 378.817 185.054 379.644 185.054C380.283 185.054 380.79 185.161 381.165 185.374C381.544 185.582 381.834 185.821 382.035 186.089C382.239 186.354 382.397 186.571 382.508 186.741H382.661V185.182H384.118V195.281C384.118 196.125 383.927 196.811 383.543 197.339C383.164 197.872 382.652 198.262 382.009 198.509C381.37 198.761 380.658 198.886 379.874 198.886ZM379.823 193.491C380.428 193.491 380.939 193.353 381.357 193.076C381.775 192.799 382.092 192.401 382.309 191.881C382.527 191.361 382.635 190.739 382.635 190.014C382.635 189.307 382.529 188.683 382.316 188.141C382.103 187.6 381.787 187.176 381.37 186.869C380.952 186.562 380.437 186.409 379.823 186.409C379.184 186.409 378.651 186.571 378.225 186.895C377.803 187.219 377.486 187.653 377.272 188.199C377.064 188.744 376.959 189.349 376.959 190.014C376.959 190.696 377.066 191.299 377.279 191.823C377.496 192.343 377.816 192.752 378.238 193.05C378.664 193.344 379.192 193.491 379.823 193.491ZM388.388 189.094V195H386.88V181.909H388.388V186.716H388.516C388.746 186.209 389.091 185.806 389.552 185.508C390.016 185.205 390.634 185.054 391.405 185.054C392.074 185.054 392.66 185.188 393.163 185.457C393.666 185.721 394.056 186.128 394.333 186.678C394.614 187.223 394.755 187.918 394.755 188.761V195H393.246V188.864C393.246 188.084 393.044 187.481 392.639 187.055C392.238 186.624 391.682 186.409 390.971 186.409C390.476 186.409 390.033 186.513 389.641 186.722C389.253 186.931 388.946 187.236 388.721 187.636C388.499 188.037 388.388 188.523 388.388 189.094Z" fill="white"/>
</svg>
