<svg width="578" height="258" viewBox="0 0 578 258" fill="none" xmlns="http://www.w3.org/2000/svg">
<path d="M0.451172 137.838C52.5143 28.7529 102.266 27.026 151.463 137.838" stroke="white"/>
<path d="M151.24 137.746C198.784 230.67 244.216 232.141 289.142 137.746" stroke="white"/>
<path d="M288.76 138.764C340.824 29.6786 390.575 27.9518 439.772 138.764" stroke="white"/>
<path d="M439.55 138.671C487.093 231.596 532.525 233.067 577.451 138.671" stroke="white"/>
<line x1="76.3406" y1="21.2544" x2="364.238" y2="21.2544" stroke="white"/>
<line x1="76.8521" x2="76.8521" y2="41.5317" stroke="white"/>
<line x1="364.727" x2="364.727" y2="41.5317" stroke="white"/>
<path d="M63.1635 75.8584H61.5783C61.4845 75.4024 61.3205 75.0019 61.0861 74.6567C60.856 74.3115 60.5747 74.0218 60.2423 73.7874C59.9142 73.5487 59.5499 73.3698 59.1493 73.2504C58.7487 73.1311 58.3311 73.0715 57.8965 73.0715C57.1038 73.0715 56.3858 73.2718 55.7423 73.6723C55.1031 74.0729 54.5939 74.6631 54.2146 75.4429C53.8396 76.2227 53.6521 77.1794 53.6521 78.3129C53.6521 79.4465 53.8396 80.4031 54.2146 81.183C54.5939 81.9628 55.1031 82.553 55.7423 82.9536C56.3858 83.3541 57.1038 83.5544 57.8965 83.5544C58.3311 83.5544 58.7487 83.4948 59.1493 83.3754C59.5499 83.2561 59.9142 83.0793 60.2423 82.8449C60.5747 82.6063 60.856 82.3144 61.0861 81.9692C61.3205 81.6198 61.4845 81.2192 61.5783 80.7675H63.1635C63.0442 81.4365 62.8269 82.0352 62.5115 82.5637C62.1962 83.0921 61.8041 83.5416 61.3354 83.9124C60.8666 84.2789 60.3404 84.558 59.7565 84.7497C59.177 84.9415 58.557 85.0374 57.8965 85.0374C56.78 85.0374 55.7871 84.7646 54.9178 84.2192C54.0485 83.6737 53.3645 82.8982 52.8659 81.8925C52.3673 80.8868 52.1181 79.6936 52.1181 78.3129C52.1181 76.9323 52.3673 75.7391 52.8659 74.7334C53.3645 73.7277 54.0485 72.9521 54.9178 72.4067C55.7871 71.8612 56.78 71.5885 57.8965 71.5885C58.557 71.5885 59.177 71.6844 59.7565 71.8762C60.3404 72.0679 60.8666 72.3492 61.3354 72.7199C61.8041 73.0864 62.1962 73.5338 62.5115 74.0622C62.8269 74.5864 63.0442 75.1851 63.1635 75.8584ZM65.5206 84.8584V75.0402H66.978V76.5232H67.0802C67.2592 76.0374 67.5831 75.6432 68.0518 75.3406C68.5206 75.0381 69.049 74.8868 69.6371 74.8868C69.7478 74.8868 69.8863 74.8889 70.0525 74.8932C70.2187 74.8975 70.3444 74.9039 70.4297 74.9124V76.4465C70.3785 76.4337 70.2613 76.4145 70.0781 76.3889C69.8991 76.3591 69.7095 76.3442 69.5092 76.3442C69.0319 76.3442 68.6058 76.4443 68.2308 76.6446C67.8601 76.8406 67.566 77.1134 67.3487 77.4628C67.1356 77.808 67.0291 78.2021 67.0291 78.6453V84.8584H65.5206ZM76.0355 85.0629C75.0895 85.0629 74.2734 84.8541 73.5873 84.4365C72.9055 84.0146 72.3792 83.4266 72.0085 82.6723C71.642 81.9138 71.4588 81.0317 71.4588 80.026C71.4588 79.0203 71.642 78.134 72.0085 77.3669C72.3792 76.5956 72.8949 75.9948 73.5554 75.5644C74.2201 75.1297 74.9957 74.9124 75.8821 74.9124C76.3934 74.9124 76.8984 74.9976 77.397 75.1681C77.8956 75.3385 78.3494 75.6155 78.7585 75.999C79.1676 76.3783 79.4936 76.8811 79.7365 77.5075C79.9794 78.134 80.1008 78.9053 80.1008 79.8215V80.4607H72.5326V79.1567H78.5667C78.5667 78.6027 78.4559 78.1084 78.2344 77.6737C78.017 77.2391 77.7059 76.896 77.3011 76.6446C76.9005 76.3932 76.4275 76.2675 75.8821 76.2675C75.2812 76.2675 74.7613 76.4166 74.3224 76.7149C73.8878 77.009 73.5532 77.3925 73.3189 77.8655C73.0845 78.3385 72.9673 78.8456 72.9673 79.3868V80.2561C72.9673 80.9976 73.0951 81.6262 73.3508 82.1418C73.6108 82.6531 73.9709 83.0431 74.4311 83.3115C74.8913 83.5757 75.4261 83.7078 76.0355 83.7078C76.4318 83.7078 76.7898 83.6524 77.1094 83.5416C77.4332 83.4266 77.7123 83.2561 77.9467 83.0303C78.1811 82.8002 78.3622 82.5146 78.49 82.1737L79.9474 82.5828C79.794 83.0771 79.5362 83.5118 79.174 83.8868C78.8118 84.2575 78.3643 84.5473 77.8317 84.7561C77.299 84.9607 76.7003 85.0629 76.0355 85.0629ZM89.3501 77.2391L87.995 77.6226C87.9098 77.3968 87.7841 77.1773 87.6179 76.9642C87.4559 76.7469 87.2344 76.5679 86.9531 76.4273C86.6719 76.2867 86.3118 76.2164 85.8728 76.2164C85.272 76.2164 84.7713 76.3548 84.3707 76.6318C83.9744 76.9046 83.7763 77.2519 83.7763 77.6737C83.7763 78.0487 83.9126 78.3449 84.1853 78.5622C84.4581 78.7796 84.8842 78.9607 85.4638 79.1056L86.9211 79.4635C87.799 79.6766 88.4531 80.0026 88.8835 80.4415C89.3139 80.8762 89.5291 81.4365 89.5291 82.1226C89.5291 82.6851 89.3672 83.1879 89.0433 83.6311C88.7237 84.0743 88.2763 84.4237 87.701 84.6794C87.1257 84.9351 86.4567 85.0629 85.6939 85.0629C84.6924 85.0629 83.8636 84.8456 83.2074 84.411C82.5511 83.9763 82.1356 83.3414 81.9609 82.5061L83.3927 82.1482C83.5291 82.6766 83.7869 83.0729 84.1662 83.3371C84.5497 83.6013 85.0504 83.7334 85.6683 83.7334C86.3714 83.7334 86.9297 83.5843 87.343 83.286C87.7606 82.9834 87.9694 82.6212 87.9694 82.1993C87.9694 81.8584 87.8501 81.5729 87.6115 81.3428C87.3728 81.1084 87.0064 80.9337 86.5121 80.8186L84.8757 80.4351C83.9765 80.222 83.316 79.8918 82.8942 79.4443C82.4765 78.9926 82.2677 78.428 82.2677 77.7504C82.2677 77.1965 82.4233 76.7064 82.7344 76.2803C83.0497 75.8541 83.478 75.5196 84.0192 75.2767C84.5646 75.0338 85.1825 74.9124 85.8728 74.9124C86.8444 74.9124 87.6072 75.1254 88.1612 75.5516C88.7194 75.9777 89.1157 76.5402 89.3501 77.2391ZM96.0698 75.0402V76.3186H90.9817V75.0402H96.0698ZM92.4646 72.6879H93.9732V82.0459C93.9732 82.472 94.035 82.7916 94.1585 83.0047C94.2864 83.2135 94.4483 83.3541 94.6443 83.4266C94.8446 83.4948 95.0556 83.5289 95.2771 83.5289C95.4433 83.5289 95.5797 83.5203 95.6862 83.5033C95.7928 83.482 95.878 83.4649 95.9419 83.4521L96.2487 84.8073C96.1465 84.8456 96.0037 84.884 95.8205 84.9223C95.6372 84.9649 95.405 84.9862 95.1237 84.9862C94.6976 84.9862 94.28 84.8946 93.8709 84.7114C93.4661 84.5281 93.1294 84.249 92.861 83.874C92.5967 83.499 92.4646 83.026 92.4646 82.455V72.6879Z" fill="white"/>
<path d="M185.623 215.389V213.982H195.441V215.389H191.325V227.073H189.74V215.389H185.623ZM196.664 227.073V217.255H198.121V218.738H198.224C198.403 218.252 198.726 217.858 199.195 217.555C199.664 217.253 200.192 217.102 200.78 217.102C200.891 217.102 201.03 217.104 201.196 217.108C201.362 217.112 201.488 217.119 201.573 217.127V218.661C201.522 218.649 201.405 218.629 201.221 218.604C201.042 218.574 200.853 218.559 200.653 218.559C200.175 218.559 199.749 218.659 199.374 218.859C199.003 219.055 198.709 219.328 198.492 219.678C198.279 220.023 198.172 220.417 198.172 220.86V227.073H196.664ZM207.051 227.278C206.165 227.278 205.387 227.067 204.718 226.645C204.053 226.223 203.533 225.633 203.158 224.874C202.787 224.116 202.602 223.229 202.602 222.215C202.602 221.193 202.787 220.3 203.158 219.537C203.533 218.774 204.053 218.182 204.718 217.76C205.387 217.338 206.165 217.127 207.051 217.127C207.937 217.127 208.713 217.338 209.378 217.76C210.047 218.182 210.567 218.774 210.937 219.537C211.312 220.3 211.5 221.193 211.5 222.215C211.5 223.229 211.312 224.116 210.937 224.874C210.567 225.633 210.047 226.223 209.378 226.645C208.713 227.067 207.937 227.278 207.051 227.278ZM207.051 225.923C207.724 225.923 208.278 225.75 208.713 225.405C209.148 225.06 209.469 224.606 209.678 224.043C209.887 223.481 209.991 222.872 209.991 222.215C209.991 221.559 209.887 220.948 209.678 220.381C209.469 219.814 209.148 219.356 208.713 219.006C208.278 218.657 207.724 218.482 207.051 218.482C206.378 218.482 205.824 218.657 205.389 219.006C204.954 219.356 204.633 219.814 204.424 220.381C204.215 220.948 204.111 221.559 204.111 222.215C204.111 222.872 204.215 223.481 204.424 224.043C204.633 224.606 204.954 225.06 205.389 225.405C205.824 225.75 206.378 225.923 207.051 225.923ZM219.99 223.059V217.255H221.499V227.073H219.99V225.411H219.888C219.658 225.91 219.3 226.334 218.814 226.683C218.328 227.028 217.714 227.201 216.973 227.201C216.359 227.201 215.814 227.067 215.337 226.798C214.859 226.526 214.484 226.117 214.212 225.571C213.939 225.021 213.803 224.329 213.803 223.494V217.255H215.311V223.391C215.311 224.107 215.511 224.678 215.912 225.104C216.317 225.531 216.832 225.744 217.459 225.744C217.834 225.744 218.215 225.648 218.603 225.456C218.995 225.264 219.323 224.97 219.587 224.574C219.856 224.178 219.99 223.673 219.99 223.059ZM228.225 230.96C227.496 230.96 226.869 230.866 226.345 230.678C225.821 230.495 225.384 230.252 225.035 229.95C224.69 229.651 224.415 229.332 224.21 228.991L225.412 228.147C225.548 228.326 225.721 228.531 225.93 228.761C226.139 228.995 226.424 229.198 226.786 229.368C227.153 229.543 227.632 229.63 228.225 229.63C229.017 229.63 229.671 229.438 230.187 229.055C230.703 228.671 230.96 228.07 230.96 227.252V225.258H230.833C230.722 225.437 230.564 225.658 230.36 225.923C230.159 226.183 229.869 226.415 229.49 226.619C229.115 226.82 228.608 226.92 227.969 226.92C227.176 226.92 226.465 226.732 225.834 226.357C225.208 225.982 224.711 225.437 224.345 224.721C223.982 224.005 223.801 223.136 223.801 222.113C223.801 221.107 223.978 220.232 224.332 219.486C224.686 218.736 225.178 218.156 225.808 217.747C226.439 217.334 227.168 217.127 227.994 217.127C228.634 217.127 229.141 217.234 229.516 217.447C229.895 217.656 230.185 217.894 230.385 218.163C230.59 218.427 230.747 218.644 230.858 218.815H231.012V217.255H232.469V227.354C232.469 228.198 232.277 228.884 231.894 229.413C231.514 229.945 231.003 230.335 230.36 230.582C229.72 230.834 229.009 230.96 228.225 230.96ZM228.173 225.565C228.779 225.565 229.29 225.426 229.708 225.149C230.125 224.872 230.443 224.474 230.66 223.954C230.877 223.434 230.986 222.812 230.986 222.087C230.986 221.38 230.879 220.756 230.666 220.215C230.453 219.673 230.138 219.249 229.72 218.943C229.303 218.636 228.787 218.482 228.173 218.482C227.534 218.482 227.002 218.644 226.575 218.968C226.154 219.292 225.836 219.727 225.623 220.272C225.414 220.818 225.31 221.423 225.31 222.087C225.31 222.769 225.416 223.372 225.629 223.896C225.847 224.416 226.166 224.825 226.588 225.124C227.014 225.418 227.543 225.565 228.173 225.565ZM236.739 221.167V227.073H235.23V213.982H236.739V218.789H236.867C237.097 218.282 237.442 217.879 237.902 217.581C238.367 217.278 238.985 217.127 239.756 217.127C240.425 217.127 241.011 217.261 241.514 217.53C242.017 217.794 242.406 218.201 242.683 218.751C242.965 219.296 243.105 219.991 243.105 220.835V227.073H241.597V220.937C241.597 220.157 241.394 219.554 240.99 219.128C240.589 218.698 240.033 218.482 239.321 218.482C238.827 218.482 238.384 218.587 237.992 218.796C237.604 219.004 237.297 219.309 237.071 219.71C236.85 220.11 236.739 220.596 236.739 221.167Z" fill="white"/>
</svg>
